<svg xmlns="http://www.w3.org/2000/svg" xml:space="preserve" width="320" height="320" viewBox="0 0 84.667 84.667"><g style="fill:none;stroke-width:2.41005"><g style="stroke-width:2.13533597;stroke-dasharray:none"><g style="stroke-width:1.79508" transform="matrix(4.16538 0 0 4.089 -7.651 -6.735)"><path d="M1.932 10v8a3.061 3.061 0 0 0 1.874 2.826c.363.154.767.242 1.194.242h4a1.068 1.068 90 0 0 0-2.136H5a.926.926 0 0 1-.86-.57.926.926 0 0 1-.072-.362V8.932H1.932Zm2.136 0V6a.926.926 0 0 1 .57-.86A.926.926 0 0 1 5 5.068h14a.926.926 0 0 1 .86.57.926.926 0 0 1 .072.362v4a1.068 1.068 90 0 0 2.136 0V6a3.062 3.062 0 0 0-1.874-2.826A3.061 3.061 0 0 0 19 2.932H5a3.061 3.061 0 0 0-2.826 1.874c-.16.379-.242.784-.242 1.194v5.068h2.136ZM3 11.068h18a1.068 1.068 90 0 0 0-2.136H1.932v2.136zM19.932 10v3a1.068 1.068 90 0 0 2.136 0V8.932h-2.136zM14.245 15.245l-.4.4-1.6 1.6a1.068 1.068 0 0 0 0 1.51 1198415.028 1198415.028 0 0 0 2 2 1.068 1.068 90 0 0 1.51-1.51l-.4-.4L14.51 18l.845-.845.4-.4a1.068 1.068 90 0 0-1.51-1.51zM18.245 16.755l.4.4.845.845-.845.845-.4.4a1.068 1.068 90 0 0 1.51 1.51l.4-.4 1.6-1.6a1.068 1.068 0 0 0 0-1.51 1198415.028 1198415.028 0 0 0-2-2 1.068 1.068 90 0 0-1.51 1.51z" style="fill:#000;fill-rule:nonzero;stroke:none;stroke-width:1.79508;stroke-dasharray:none"/><circle cx="6" cy="7" r="1" fill="#000" style="stroke-width:1.79508;stroke-dasharray:none"/><circle cx="9" cy="7" r="1" fill="#000" style="stroke-width:1.79508;stroke-dasharray:none"/></g></g></g></svg>